<svg xmlns="http://www.w3.org/2000/svg" xmlns:xlink="http://www.w3.org/1999/xlink" xmlns:lucid="lucid" width="478" height="914"><g transform="translate(2285 484)" lucid:page-tab-id="0_0"><path d="M-2520-472a8 8 0 0 1 8-8h836.75a8 8 0 0 1 8 8v25.15a8 8 0 0 1-8 8H-2512a8 8 0 0 1-8-8z" stroke="#000" stroke-opacity="0" stroke-width="2" fill="#fff" fill-opacity="0"/><use xlink:href="#a" transform="matrix(1,0,0,1,-2516,-476) translate(403.3025925925926 25.782777777777778)"/><path d="M-2243.52-440.2h309.36M-2243.5-440.2h-1.02M-1934.18-440.2h1.02" stroke="#a9afb8" stroke-width="2" fill="none"/><path d="M-2272.6 66a6 6 0 0 1 6-6h148a6 6 0 0 1 6 6v114a6 6 0 0 1-6 6h-148a6 6 0 0 1-6-6z" stroke="#979ea8" fill="#636363" fill-opacity="0"/><use xlink:href="#b" transform="matrix(1,0,0,1,-2264.6140634550848,68) translate(49.808641975308646 59.44444444444444)"/><path d="M-2020-288a6 6 0 0 1 6-6h148a6 6 0 0 1 6 6v114a6 6 0 0 1-6 6h-148a6 6 0 0 1-6-6z" stroke="#979ea8" fill="#636363" fill-opacity="0"/><use xlink:href="#c" transform="matrix(1,0,0,1,-2012,-286) translate(33.2037037037037 59.44444444444444)"/><path d="M-2272.6 294a6 6 0 0 1 6-6h148a6 6 0 0 1 6 6v114a6 6 0 0 1-6 6h-148a6 6 0 0 1-6-6z" stroke="#979ea8" fill="#636363" fill-opacity="0"/><use xlink:href="#d" transform="matrix(1,0,0,1,-2264.6140634550848,296) translate(7.524691358024683 59.44444444444444)"/><path d="M-2020-3.15a6 6 0 0 1 6-6h188a6 6 0 0 1 6 6v114a6 6 0 0 1-6 6h-188a6 6 0 0 1-6-6z" stroke="#979ea8" fill="#636363" fill-opacity="0"/><use xlink:href="#e" transform="matrix(1,0,0,1,-2012,-1.1552239566659637) translate(11.907407407407419 59.44444444444444)"/><path d="M-2272.6-162a6 6 0 0 1 6-6h148a6 6 0 0 1 6 6v114a6 6 0 0 1-6 6h-148a6 6 0 0 1-6-6z" stroke="#979ea8" fill="#636363" fill-opacity="0"/><use xlink:href="#f" transform="matrix(1,0,0,1,-2264.6140634550848,-160) translate(42.98765432098766 59.44444444444444)"/><path d="M-2272.6-390a6 6 0 0 1 6-6h148a6 6 0 0 1 6 6v114a6 6 0 0 1-6 6h-148a6 6 0 0 1-6-6z" stroke="#979ea8" fill="#636363" fill-opacity="0"/><use xlink:href="#g" transform="matrix(1,0,0,1,-2264.6140634550848,-388) translate(37.46296296296296 59.44444444444444)"/><path d="M-2051.25-231h-9.06a6 6 0 0 1-6-6v-90a6 6 0 0 0-6-6h-21" stroke="#979ea8" stroke-width="2" fill="none"/><path d="M-2021.9-231l-14.86 14.85-15.15-14.85 15.14-14.85z" stroke="#979ea8" stroke-width="2" fill="#979ea8"/><path d="M-2111.67-343l20 10-20 10" stroke="#979ea8" stroke-width="2" fill="#fff" fill-opacity="0"/><path d="M-2111.67-333h20" stroke="#979ea8" stroke-width="2" fill="#fff"/><path d="M-2192.6-238.83v18.58" stroke="#979ea8" stroke-width="2" fill="none"/><path d="M-2177.6-253.5c0 8.28-6.73 15-15 15-8.3 0-15-6.72-15-15 0-8.28 6.7-15 15-15 8.27 0 15 6.72 15 15zM-2192.6-190.9l-14.86-14.86 14.85-15.15 14.84 15.14z" stroke="#979ea8" stroke-width="2" fill="#fff"/><path d="M-2192.6-22.68v-8" stroke="#979ea8" stroke-width="2" fill="none"/><path d="M-2182.6-41.05l-10 20-10-20" stroke="#979ea8" stroke-width="2" fill="#fff" fill-opacity="0"/><path d="M-2192.6-41.05v20M-2177.6-16c0 8.28-6.73 15-15 15-8.3 0-15-6.72-15-15 0-8.28 6.7-15 15-15 8.27 0 15 6.72 15 15z" stroke="#979ea8" stroke-width="2" fill="#fff"/><path d="M-1890.67-148.68v54.1a6 6 0 0 1-6 6H-1914a6 6 0 0 0-6 6v42.17" stroke="#979ea8" stroke-width="2" fill="none"/><path d="M-1880.67-167.05l-10 20-10-20" stroke="#979ea8" stroke-width="2" fill="#fff" fill-opacity="0"/><path d="M-1890.67-167.05v20M-1920-11.07l-14.85-14.85 14.85-15.15 14.85 15.15z" stroke="#979ea8" stroke-width="2" fill="#fff"/><path d="M-1970.9 352h-122.4v-2h122.4zm51.9-6.96l-.08 1.06-.26 1.06-.42 1.02-.57.94-.72.83-.83.72-.94.57-1.02.42-1.06.26-1.06.08h-18.27v-2h18.2l.8-.06.77-.2.73-.3.67-.4.6-.5.5-.6.4-.67.3-.73.2-.76.06-.82V148.1h2z" stroke="#979ea8" stroke-width=".05" fill="#979ea8"/><path d="M-2111.67 341l20 10-20 10" fill="#fff" fill-opacity="0"/><path d="M-2089.43 351l-21.8 10.9-.88-1.8 18.2-9.1-18.2-9.1.88-1.8z" stroke="#979ea8" stroke-width=".05" fill="#979ea8"/><path fill="#fff"/><path d="M-2091.67 352h-20v-2h20z" stroke="#979ea8" stroke-width=".05" fill="#979ea8"/><path d="M-1905.15 133.6l-14.85 15.16-14.85-15.15 14.85-14.84z" fill="#fff"/><path d="M-1903.74 133.6l-16.26 16.6-16.26-16.6 16.26-16.25zm-29.7.02l13.44 13.7 13.44-13.7-13.44-13.45z" stroke="#979ea8" stroke-width=".05" fill="#979ea8"/><use xlink:href="#h" transform="matrix(1,0,0,1,-1970.8988891316758,340.3333333333333) translate(0 14.222222222222223)"/><path d="M-2192.6-187.32v-1.18" stroke="#979ea8" stroke-width="2" fill="none"/><path d="M-2202.6-168.95l10-20 10 20" stroke="#979ea8" stroke-width="2" fill="#fff" fill-opacity="0"/><path d="M-2192.6-168.95v-20" stroke="#979ea8" stroke-width="2" fill="#fff"/><path d="M-2192.6-188.47v-1.03M-2192.6 28.75V.33" stroke="#979ea8" stroke-width="2" fill="none"/><path d="M-2192.6 58.1l-14.86-14.86 14.85-15.15 14.84 15.14z" stroke="#979ea8" stroke-width="2" fill="#979ea8"/><path d="M-2192.6.36V-.67M-2192.6 205.32v-8.5" stroke="#979ea8" stroke-width="2" fill="none"/><path d="M-2182.6 186.95l-10 20-10-20" stroke="#979ea8" stroke-width="2" fill="#fff" fill-opacity="0"/><path d="M-2192.6 186.95v20M-2177.6 211.5c0 8.28-6.73 15-15 15-8.3 0-15-6.72-15-15 0-8.28 6.7-15 15-15 8.27 0 15 6.72 15 15z" stroke="#979ea8" stroke-width="2" fill="#fff"/><path d="M-2192.6 256.75V228.5" stroke="#979ea8" stroke-width="2" fill="none"/><path d="M-2192.6 286.1l-14.86-14.86 14.85-15.15 14.84 15.14z" stroke="#979ea8" stroke-width="2" fill="#979ea8"/><path d="M-2192.6 228.53v-1.03M-1995-136.75V-116a6 6 0 0 1-6 6h-53a6 6 0 0 0-6 6v408a6 6 0 0 1-6 6h-8a6 6 0 0 0-6 6v3" stroke="#979ea8" stroke-width="2" fill="none"/><path d="M-1995-166.1l14.85 14.86-14.85 15.15-14.85-15.14z" stroke="#979ea8" stroke-width="2" fill="#fff"/><path d="M-2080 318.97V320M-2093.3 308.5h-8.9" stroke="#979ea8" stroke-width="2" fill="none"/><path d="M-2111.67 298.5l20 10-20 10" stroke="#979ea8" stroke-width="2" fill="#fff" fill-opacity="0"/><path d="M-2111.67 308.5h20M-2072.54 308.5c0 8.28-6.72 15-15 15-8.3 0-15-6.72-15-15 0-8.28 6.7-15 15-15 8.28 0 15 6.72 15 15z" stroke="#979ea8" stroke-width="2" fill="#fff"/><defs><path fill="#a9afb8" d="M24 0v-248h52V0H24" id="i"/><path fill="#a9afb8" d="M240-174c0 40-23 61-54 70L253 0h-59l-57-94H76V0H24v-248c93 4 217-23 216 74zM76-134c48-2 112 12 112-38 0-48-66-32-112-35v73" id="j"/><path fill="#a9afb8" d="M199 0l-22-63H83L61 0H9l90-248h61L250 0h-51zm-33-102l-36-108c-10 38-24 72-36 108h72" id="k"/><g id="a"><use transform="matrix(0.0728395061728395,0,0,0.0728395061728395,0,0)" xlink:href="#i"/><use transform="matrix(0.0728395061728395,0,0,0.0728395061728395,7.28395061728395,0)" xlink:href="#j"/><use transform="matrix(0.0728395061728395,0,0,0.0728395061728395,26.14938271604938,0)" xlink:href="#k"/></g><path fill="#979ea8" d="M185-189c-5-48-123-54-124 2 14 75 158 14 163 119 3 78-121 87-175 55-17-10-28-26-33-46l33-7c5 56 141 63 141-1 0-78-155-14-162-118-5-82 145-84 179-34 5 7 8 16 11 25" id="l"/><path fill="#979ea8" d="M106-169C34-169 62-67 57 0H25v-261h32l-1 103c12-21 28-36 61-36 89 0 53 116 60 194h-32v-121c2-32-8-49-39-48" id="m"/><path fill="#979ea8" d="M24-231v-30h32v30H24zM24 0v-190h32V0H24" id="n"/><path fill="#979ea8" d="M115-194c55 1 70 41 70 98S169 2 115 4C84 4 66-9 55-30l1 105H24l-1-265h31l2 30c10-21 28-34 59-34zm-8 174c40 0 45-34 45-75s-6-73-45-74c-42 0-51 32-51 76 0 43 10 73 51 73" id="o"/><g id="b"><use transform="matrix(0.06172839506172839,0,0,0.06172839506172839,0,0)" xlink:href="#l"/><use transform="matrix(0.06172839506172839,0,0,0.06172839506172839,14.814814814814813,0)" xlink:href="#m"/><use transform="matrix(0.06172839506172839,0,0,0.06172839506172839,27.160493827160494,0)" xlink:href="#n"/><use transform="matrix(0.06172839506172839,0,0,0.06172839506172839,32.03703703703704,0)" xlink:href="#o"/></g><path fill="#979ea8" d="M197 0v-115H63V0H30v-248h33v105h134v-105h34V0h-34" id="p"/><path fill="#979ea8" d="M141-36C126-15 110 5 73 4 37 3 15-17 15-53c-1-64 63-63 125-63 3-35-9-54-41-54-24 1-41 7-42 31l-33-3c5-37 33-52 76-52 45 0 72 20 72 64v82c-1 20 7 32 28 27v20c-31 9-61-2-59-35zM48-53c0 20 12 33 32 33 41-3 63-29 60-74-43 2-92-5-92 41" id="q"/><path fill="#979ea8" d="M117-194c89-4 53 116 60 194h-32v-121c0-31-8-49-39-48C34-167 62-67 57 0H25l-1-190h30c1 10-1 24 2 32 11-22 29-35 61-36" id="r"/><path fill="#979ea8" d="M85-194c31 0 48 13 60 33l-1-100h32l1 261h-30c-2-10 0-23-3-31C134-8 116 4 85 4 32 4 16-35 15-94c0-66 23-100 70-100zm9 24c-40 0-46 34-46 75 0 40 6 74 45 74 42 0 51-32 51-76 0-42-9-74-50-73" id="s"/><path fill="#979ea8" d="M24 0v-261h32V0H24" id="t"/><path fill="#979ea8" d="M100-194c63 0 86 42 84 106H49c0 40 14 67 53 68 26 1 43-12 49-29l28 8c-11 28-37 45-77 45C44 4 14-33 15-96c1-61 26-98 85-98zm52 81c6-60-76-77-97-28-3 7-6 17-6 28h103" id="u"/><path fill="#979ea8" d="M114-163C36-179 61-72 57 0H25l-1-190h30c1 12-1 29 2 39 6-27 23-49 58-41v29" id="v"/><g id="c"><use transform="matrix(0.06172839506172839,0,0,0.06172839506172839,0,0)" xlink:href="#p"/><use transform="matrix(0.06172839506172839,0,0,0.06172839506172839,15.987654320987653,0)" xlink:href="#q"/><use transform="matrix(0.06172839506172839,0,0,0.06172839506172839,28.333333333333332,0)" xlink:href="#r"/><use transform="matrix(0.06172839506172839,0,0,0.06172839506172839,40.67901234567901,0)" xlink:href="#s"/><use transform="matrix(0.06172839506172839,0,0,0.06172839506172839,53.02469135802469,0)" xlink:href="#t"/><use transform="matrix(0.06172839506172839,0,0,0.06172839506172839,57.901234567901234,0)" xlink:href="#u"/><use transform="matrix(0.06172839506172839,0,0,0.06172839506172839,70.24691358024691,0)" xlink:href="#v"/></g><path fill="#979ea8" d="M266 0h-40l-56-210L115 0H75L2-248h35L96-30l15-64 43-154h32l59 218 59-218h35" id="w"/><g id="d"><use transform="matrix(0.06172839506172839,0,0,0.06172839506172839,0,0)" xlink:href="#l"/><use transform="matrix(0.06172839506172839,0,0,0.06172839506172839,14.814814814814813,0)" xlink:href="#m"/><use transform="matrix(0.06172839506172839,0,0,0.06172839506172839,27.160493827160494,0)" xlink:href="#n"/><use transform="matrix(0.06172839506172839,0,0,0.06172839506172839,32.03703703703704,0)" xlink:href="#o"/><use transform="matrix(0.06172839506172839,0,0,0.06172839506172839,44.382716049382715,0)" xlink:href="#w"/><use transform="matrix(0.06172839506172839,0,0,0.06172839506172839,64.87654320987653,0)" xlink:href="#v"/><use transform="matrix(0.06172839506172839,0,0,0.06172839506172839,72.22222222222221,0)" xlink:href="#q"/><use transform="matrix(0.06172839506172839,0,0,0.06172839506172839,84.5679012345679,0)" xlink:href="#o"/><use transform="matrix(0.06172839506172839,0,0,0.06172839506172839,96.91358024691358,0)" xlink:href="#o"/><use transform="matrix(0.06172839506172839,0,0,0.06172839506172839,109.25925925925927,0)" xlink:href="#u"/><use transform="matrix(0.06172839506172839,0,0,0.06172839506172839,121.60493827160495,0)" xlink:href="#v"/></g><path fill="#979ea8" d="M240 0l2-218c-23 76-54 145-80 218h-23L58-218 59 0H30v-248h44l77 211c21-75 51-140 76-211h43V0h-30" id="x"/><path fill="#979ea8" d="M0 4l72-265h28L28 4H0" id="y"/><path fill="#979ea8" d="M143 4C61 4 22-44 18-125c-5-107 100-154 193-111 17 8 29 25 37 43l-32 9c-13-25-37-40-76-40-61 0-88 39-88 99 0 61 29 100 91 101 35 0 62-11 79-27v-45h-74v-28h105v86C228-13 192 4 143 4" id="z"/><path fill="#979ea8" d="M232-93c-1 65-40 97-104 97C67 4 28-28 28-90v-158h33c8 89-33 224 67 224 102 0 64-133 71-224h33v155" id="A"/><path fill="#979ea8" d="M33 0v-248h34V0H33" id="B"/><path fill="#979ea8" d="M127-220V0H93v-220H8v-28h204v28h-85" id="C"/><path fill="#979ea8" d="M135-143c-3-34-86-38-87 0 15 53 115 12 119 90S17 21 10-45l28-5c4 36 97 45 98 0-10-56-113-15-118-90-4-57 82-63 122-42 12 7 21 19 24 35" id="D"/><path fill="#979ea8" d="M59-47c-2 24 18 29 38 22v24C64 9 27 4 27-40v-127H5v-23h24l9-43h21v43h35v23H59v120" id="E"/><g id="e"><use transform="matrix(0.06172839506172839,0,0,0.06172839506172839,0,0)" xlink:href="#x"/><use transform="matrix(0.06172839506172839,0,0,0.06172839506172839,18.456790123456788,0)" xlink:href="#q"/><use transform="matrix(0.06172839506172839,0,0,0.06172839506172839,30.80246913580247,0)" xlink:href="#n"/><use transform="matrix(0.06172839506172839,0,0,0.06172839506172839,35.67901234567901,0)" xlink:href="#r"/><use transform="matrix(0.06172839506172839,0,0,0.06172839506172839,48.02469135802469,0)" xlink:href="#y"/><use transform="matrix(0.06172839506172839,0,0,0.06172839506172839,54.19753086419753,0)" xlink:href="#z"/><use transform="matrix(0.06172839506172839,0,0,0.06172839506172839,71.48148148148148,0)" xlink:href="#A"/><use transform="matrix(0.06172839506172839,0,0,0.06172839506172839,87.46913580246914,0)" xlink:href="#B"/><use transform="matrix(0.06172839506172839,0,0,0.06172839506172839,93.64197530864197,0)" xlink:href="#y"/><use transform="matrix(0.06172839506172839,0,0,0.06172839506172839,99.81481481481481,0)" xlink:href="#C"/><use transform="matrix(0.06172839506172839,0,0,0.06172839506172839,110.86419753086419,0)" xlink:href="#u"/><use transform="matrix(0.06172839506172839,0,0,0.06172839506172839,123.20987654320987,0)" xlink:href="#D"/><use transform="matrix(0.06172839506172839,0,0,0.06172839506172839,134.320987654321,0)" xlink:href="#E"/><use transform="matrix(0.06172839506172839,0,0,0.06172839506172839,140.49382716049382,0)" xlink:href="#u"/><use transform="matrix(0.06172839506172839,0,0,0.06172839506172839,152.8395061728395,0)" xlink:href="#v"/></g><path fill="#979ea8" d="M177-190C167-65 218 103 67 71c-23-6-38-20-44-43l32-5c15 47 100 32 89-28v-30C133-14 115 1 83 1 29 1 15-40 15-95c0-56 16-97 71-98 29-1 48 16 59 35 1-10 0-23 2-32h30zM94-22c36 0 50-32 50-73 0-42-14-75-50-75-39 0-46 34-46 75s6 73 46 73" id="F"/><g id="f"><use transform="matrix(0.06172839506172839,0,0,0.06172839506172839,0,0)" xlink:href="#l"/><use transform="matrix(0.06172839506172839,0,0,0.06172839506172839,14.814814814814813,0)" xlink:href="#E"/><use transform="matrix(0.06172839506172839,0,0,0.06172839506172839,20.98765432098765,0)" xlink:href="#q"/><use transform="matrix(0.06172839506172839,0,0,0.06172839506172839,33.33333333333333,0)" xlink:href="#F"/><use transform="matrix(0.06172839506172839,0,0,0.06172839506172839,45.679012345679006,0)" xlink:href="#u"/></g><path fill="#979ea8" d="M30 0v-248h187v28H63v79h144v27H63v87h162V0H30" id="G"/><g id="g"><use transform="matrix(0.06172839506172839,0,0,0.06172839506172839,0,0)" xlink:href="#G"/><use transform="matrix(0.06172839506172839,0,0,0.06172839506172839,14.814814814814813,0)" xlink:href="#r"/><use transform="matrix(0.06172839506172839,0,0,0.06172839506172839,27.160493827160494,0)" xlink:href="#F"/><use transform="matrix(0.06172839506172839,0,0,0.06172839506172839,39.50617283950617,0)" xlink:href="#n"/><use transform="matrix(0.06172839506172839,0,0,0.06172839506172839,44.382716049382715,0)" xlink:href="#r"/><use transform="matrix(0.06172839506172839,0,0,0.06172839506172839,56.72839506172839,0)" xlink:href="#u"/></g><path fill="#979ea8" d="M101-251c68 0 84 54 84 127C185-50 166 4 99 4S15-52 14-124c-1-75 17-127 87-127zm-1 216c37-5 36-46 36-89s4-89-36-89c-39 0-36 45-36 89 0 43-3 85 36 89" id="H"/><path fill="#979ea8" d="M24 0v-54h51V0H24" id="I"/><path fill="#979ea8" d="M86-200l42-18 12 35-44 11 32 37-32 21-26-44-26 44-32-21 33-37-44-11 12-35 42 18-3-48h38" id="J"/><g id="h"><use transform="matrix(0.04938271604938272,0,0,0.04938271604938272,0,0)" xlink:href="#H"/><use transform="matrix(0.04938271604938272,0,0,0.04938271604938272,9.876543209876544,0)" xlink:href="#I"/><use transform="matrix(0.04938271604938272,0,0,0.04938271604938272,14.814814814814817,0)" xlink:href="#I"/><use transform="matrix(0.04938271604938272,0,0,0.04938271604938272,19.75308641975309,0)" xlink:href="#J"/></g></defs></g></svg>